<svg xmlns="http://www.w3.org/2000/svg" xmlns:xlink="http://www.w3.org/1999/xlink" version="1.1" x="0px" y="0px" viewBox="0 0 100 100" enable-background="new 0 0 100 100" xml:space="preserve"><path d="M82.5,19.814c-3.75,0-13.75,5.295-13.75,2.5c0-1.25,5-1.25,7.5-3.75s3.75-7.5,2.5-11.25c-2.307-6.917-5,3.75-8.75,5  c-1.678,0.559-6.25,2.5-10,1.25c-4.277-1.426-7.5-2.5-10-2.5s-5.725,1.074-10,2.5c-3.75,1.25-8.322-0.691-10-1.25  c-3.75-1.25-6.445-11.917-8.75-5c-1.25,3.75,0,8.75,2.5,11.25s7.5,2.5,7.5,3.75c0,2.795-10-2.5-13.75-2.5  c-6.25,0-12.5,3.75-12.5,7.5c0,2.5,3.75,6.25,11.25,6.25c7.603,0,10-6.25,11.25-2.5c0,0-1.375,11.125,5,17.5  c3.75,3.75,2.5,8.75,1.25,11.25s-2.959,12.468,3.75,17.5c5,3.75,9.422,5,12.5,5c3.076,0,7.5-1.25,12.5-5c6.707-5.032,5-15,3.75-17.5  s-2.5-7.5,1.25-11.25c6.372-6.375,5-17.5,5-17.5c1.25-3.75,3.645,2.5,11.25,2.5c7.5,0,11.25-3.75,11.25-6.25  C95,23.564,88.75,19.814,82.5,19.814z M37.5,43.75c-1.381,0-2.5-1.121-2.5-2.5c0-1.382,1.119-2.5,2.5-2.5s2.5,1.118,2.5,2.5  C40,42.629,38.881,43.75,37.5,43.75z M60,68.564c-1.25,5-6.25,7.5-10,7.5s-8.75-2.5-10-7.5c-0.91-3.638,1.25-6.25,3.75-8.75  s2.5-10,2.5-11.25s0-7.5-2.5-11.25s-6.25-3.75-6.25-11.25s12.5-8.75,12.5-8.75s12.5,1.25,12.5,8.75s-3.75,7.5-6.25,11.25  s-2.5,10-2.5,11.25s0,8.75,2.5,11.25S60.908,64.927,60,68.564z M62.5,43.75c-1.381,0-2.5-1.121-2.5-2.5c0-1.382,1.119-2.5,2.5-2.5  s2.5,1.118,2.5,2.5C65,42.629,63.881,43.75,62.5,43.75z"></path><path d="M21.416,95c2.5-3.75,1.25-6.426,0-8.926c-1.382-2.766,6.25,1.426,7.5,5.176c0,0,2.5-0.176,1.25-7.676  C29.875,81.831,36.416,90,36.416,90s3.75-4.443,3.75-2.676c0,3.75,2.5,3.926,2.5,3.926s7.5-8.193,7.5-6.426  c0,3.75,1.25,3.926,3.75,6.426c0,0,3.75,1.074,3.75-6.426c0,0,2.5-2.324,6.25,3.926c0,0,3.75-2.676,6.25-3.926c0,0,0,2.676,0,5.176  c0,0,2.5-1.426,6.25-2.676c0,0,0,6.426,2.5,7.676"></path><path d="M44.322,67.074c-0.867,0-1.572,0.704-1.572,1.571c0,0.868,0.705,1.572,1.572,1.572c3.14,0,2.033,2.616,3.14,2.616  C48.512,72.833,48.512,67.074,44.322,67.074z"></path><path d="M55.898,67.074c0.868,0,1.572,0.704,1.572,1.571c0,0.868-0.704,1.572-1.572,1.572c-3.14,0-2.029,2.616-3.14,2.616  C51.711,72.833,51.711,67.074,55.898,67.074z"></path></svg>